<?xml version="1.0" standalone="no"?>
<!DOCTYPE svg PUBLIC "-//W3C//DTD SVG 20010904//EN"
 "http://www.w3.org/TR/2001/REC-SVG-20010904/DTD/svg10.dtd">
<svg version="1.0" xmlns="http://www.w3.org/2000/svg"
 width="260.000000pt" height="260.000000pt" viewBox="0 0 260.000000 260.000000"
 preserveAspectRatio="xMidYMid meet">
<metadata>
Created by potrace 1.14, written by Peter Selinger 2001-2017
</metadata>
<g transform="translate(0.000000,260.000000) scale(0.100000,-0.100000)"
fill="#000000" stroke="none">
<path d="M140 1295 l0 -1165 1165 0 1165 0 0 1165 0 1165 -1165 0 -1165 0 0
-1165z m930 424 c0 -36 -3 -40 -29 -45 -67 -14 -65 -4 -72 -448 -6 -438 -8
-453 -68 -548 -16 -25 -53 -65 -82 -88 -59 -46 -165 -104 -178 -96 -5 3 -14
19 -21 36 -12 28 -10 31 33 74 53 51 80 101 96 174 15 70 15 807 0 849 -7 22
-21 35 -50 46 -36 14 -39 18 -39 54 l0 38 205 -3 205 -3 0 -40z m741 18 c63
-24 113 -68 141 -124 35 -72 32 -195 -7 -281 -32 -71 -85 -124 -154 -155 -48
-21 -170 -34 -215 -23 -23 6 -26 12 -26 46 l0 40 54 0 c44 0 60 5 85 26 40 33
49 51 62 116 14 75 -4 175 -42 227 -33 46 -79 64 -149 59 l-45 -3 -3 -315 c-2
-197 1 -328 7 -351 14 -47 40 -69 89 -76 42 -6 52 -19 52 -70 l0 -23 -231 0
-230 0 3 41 c3 38 6 43 38 53 58 18 61 44 58 397 -3 334 -3 332 -62 347 -28 7
-31 12 -34 51 l-3 42 283 -3 c237 -3 290 -7 329 -21z"/>
</g>
</svg>
